<?xml version="1.0" standalone="no"?><!DOCTYPE svg PUBLIC "-//W3C//DTD SVG 1.1//EN" "http://www.w3.org/Graphics/SVG/1.1/DTD/svg11.dtd"><svg t="1533354341034" class="icon" style="" viewBox="0 0 1024 1024" version="1.1" xmlns="http://www.w3.org/2000/svg" p-id="1249" xmlns:xlink="http://www.w3.org/1999/xlink" width="32" height="32"><defs><style type="text/css"></style></defs><path d="M609.206 396.656H193.504l201.87-199.152c17.787-17.787 17.787-43.185 0-60.973s-41.555-18.641-59.42-0.778L62.857 402.557c-17.787 17.787-17.787 41.399 0 59.186L336.03 728.858c17.787 17.787 41.555 17.787 59.42-0.078 17.787-17.787 17.787-41.166 0-58.953L193.502 474.326h415.702c166.219 0 311.155 129.712 311.155 290.029v41.555c0 23.769 15.069 41.555 38.836 41.555s38.836-17.787 38.836-41.555v-41.555c0-207.852-175.073-367.7-388.828-367.7z" fill="" p-id="1250"></path></svg>