<?xml version="1.0" standalone="no"?><!DOCTYPE svg PUBLIC "-//W3C//DTD SVG 1.1//EN" "http://www.w3.org/Graphics/SVG/1.1/DTD/svg11.dtd"><svg t="1533372417250" class="icon" style="" viewBox="0 0 1024 1024" version="1.1" xmlns="http://www.w3.org/2000/svg" p-id="4642" xmlns:xlink="http://www.w3.org/1999/xlink" width="200" height="200"><defs><style type="text/css"></style></defs><path d="M945.309538 236.307692v708.923077h-708.923076V236.307692h708.923076m0-78.76923h-708.923076a78.769231 78.769231 0 0 0-78.769231 78.76923v708.923077a78.769231 78.769231 0 0 0 78.769231 78.769231h708.923076a78.769231 78.769231 0 0 0 78.769231-78.769231V236.307692a78.769231 78.769231 0 0 0-78.769231-78.76923z" fill="#999999" p-id="4643"></path><path d="M866.540308 590.769231a39.384615 39.384615 0 0 1-39.384616 39.384615h-472.615384a39.384615 39.384615 0 0 1 0-78.769231h472.615384a39.384615 39.384615 0 0 1 39.384616 39.384616z" fill="#999999" p-id="4644"></path><path d="M590.848 866.461538a39.384615 39.384615 0 0 1-39.384615-39.384615v-472.615385a39.384615 39.384615 0 0 1 78.76923 0v472.615385a39.384615 39.384615 0 0 1-39.384615 39.384615zM40.723692 786.038154a39.384615 39.384615 0 0 1-39.384615-39.384616V39.384615a39.384615 39.384615 0 0 1 39.384615-39.384615h708.923077a39.384615 39.384615 0 0 1 0 78.769231h-669.538461v667.884307a39.384615 39.384615 0 0 1-39.384616 39.384616z" fill="#999999" p-id="4645"></path></svg>