<?xml version="1.0" standalone="no"?><!DOCTYPE svg PUBLIC "-//W3C//DTD SVG 1.1//EN" "http://www.w3.org/Graphics/SVG/1.1/DTD/svg11.dtd"><svg t="1533372520353" class="icon" style="" viewBox="0 0 1024 1024" version="1.1" xmlns="http://www.w3.org/2000/svg" p-id="1941" xmlns:xlink="http://www.w3.org/1999/xlink" width="200" height="200"><defs><style type="text/css"></style></defs><path d="M902.950352 353.934472H121.522264c-67.022304 0-121.522227-50.247039-121.522228-111.91386v-12.443624c0-61.745578 54.499923-111.913859 121.522228-111.913859h781.428088c67.022304 0 121.522227 50.168282 121.522227 111.913859v12.443624c0 61.66682-54.499923 111.913859-121.522227 111.91386z m-781.428088-157.514229c-23.154592 0-42.765113 15.200123-42.765113 33.156745v12.443624c0 18.035379 19.610521 33.156745 42.765113 33.156745h781.428088c23.154592 0 42.765113-15.200123 42.765113-33.156745v-12.443624c0-17.956622-19.610521-33.156745-42.765113-33.156745H121.522264z" fill="#999999" p-id="1942"></path><path d="M630.450736 118.214429h-78.757114a39.536071 39.536071 0 0 0-78.914629 0H394.021879c0-65.210891 53.003538-118.214429 118.214429-118.214429 65.210891 0 118.214429 53.003538 118.214428 118.214429zM749.216465 1023.842486H275.334908c-64.895862 0-117.663129-50.955853-117.663129-113.725273V389.060145c0-62.690663 52.767267-113.725273 117.663129-113.725273H749.216465c64.895862 0 117.663129 50.955853 117.663128 113.725273v521.057068c0 62.76942-52.767267 113.725273-117.663128 113.725273zM275.334908 354.091986c-21.421935 0-38.906014 15.672666-38.906015 34.968159v521.057068c0 19.295493 17.484079 34.968159 38.906015 34.968158H749.216465c21.421935 0 38.906014-15.672666 38.906014-34.968158V389.060145c0-19.295493-17.484079-34.968159-38.906014-34.968159H275.334908z" fill="#999999" p-id="1943"></path><path d="M392.840522 827.028457a39.457314 39.457314 0 0 1-39.378557 39.614829 39.457314 39.457314 0 0 1-39.378557-39.614829V512.315028c0-21.894478 17.641594-39.614828 39.378557-39.614828s39.378557 17.720351 39.378557 39.614828v314.713429zM551.614865 834.982926c0 17.484079-17.641594 31.739117-39.378557 31.739117s-39.378557-14.176281-39.378557-31.739117V583.196431c0-17.484079 17.641594-31.739117 39.378557-31.739117s39.378557 14.176281 39.378557 31.739117V834.982926zM709.286608 561.301954c0 8.74204-17.641594 29.533918-39.378557 29.533917s-39.378557-20.791878-39.378558-29.533917V462.776804c0-8.74204 17.641594-29.533918 39.378558-29.533918s39.378557 20.791878 39.378557 29.533918v98.52515zM709.286608 832.305184c0 13.152438-17.641594 34.416859-39.378557 34.416859s-39.378557-21.264421-39.378558-34.416859V663.607445c0-13.152438 17.641594-33.314259 39.378558-33.314259s39.378557 20.161821 39.378557 33.314259v168.697739z" fill="#999999" p-id="1944"></path></svg>