<?xml version="1.0" standalone="no"?><!DOCTYPE svg PUBLIC "-//W3C//DTD SVG 1.1//EN" "http://www.w3.org/Graphics/SVG/1.1/DTD/svg11.dtd"><svg t="1533720441785" class="icon" style="" viewBox="0 0 1024 1024" version="1.1" xmlns="http://www.w3.org/2000/svg" p-id="3076" xmlns:xlink="http://www.w3.org/1999/xlink" width="64" height="64"><defs><style type="text/css"></style></defs><path d="M938.666667 256 85.333333 256C38.4 256 0 217.6 0 170.666667L0 85.333333c0-46.933333 38.4-85.333333 85.333333-85.333333l853.333333 0c46.933333 0 85.333333 38.4 85.333333 85.333333l0 85.333333C1024 217.6 985.6 256 938.666667 256zM938.666667 170.666667l0 42.666667L938.666667 170.666667 938.666667 170.666667 938.666667 170.666667zM85.333333 85.333333l0 85.333333 853.333333 0 0-85.333333L85.333333 85.333333z" p-id="3077" fill="#8a8a8a"></path><path d="M938.666667 640 85.333333 640c-46.933333 0-85.333333-38.4-85.333333-85.333333l0-85.333333c0-46.933333 38.4-85.333333 85.333333-85.333333l853.333333 0c46.933333 0 85.333333 38.4 85.333333 85.333333l0 85.333333C1024 601.6 985.6 640 938.666667 640zM938.666667 554.666667l0 42.666667L938.666667 554.666667 938.666667 554.666667 938.666667 554.666667zM85.333333 469.333333l0 85.333333 853.333333 0 0-85.333333L85.333333 469.333333z" p-id="3078" fill="#8a8a8a"></path><path d="M469.333333 981.333333 85.333333 981.333333c-21.333333 0-42.666667-21.333333-42.666667-42.666667l0-85.333333c0-21.333333 21.333333-42.666667 42.666667-42.666667l384 0c25.6 0 42.666667 21.333333 42.666667 42.666667l0 85.333333C512 960 494.933333 981.333333 469.333333 981.333333z" p-id="3079" fill="#8a8a8a"></path><path d="M469.333333 1024 85.333333 1024c-46.933333 0-85.333333-38.4-85.333333-85.333333l0-85.333333c0-46.933333 38.4-85.333333 85.333333-85.333333l384 0c46.933333 0 85.333333 38.4 85.333333 85.333333l0 85.333333C554.666667 985.6 516.266667 1024 469.333333 1024zM469.333333 938.666667l0 42.666667L469.333333 938.666667 469.333333 938.666667 469.333333 938.666667zM85.333333 853.333333l0 85.333333 384 0 0-85.333333L85.333333 853.333333z" p-id="3080" fill="#8a8a8a"></path></svg>