<?xml version="1.0" standalone="no"?><!DOCTYPE svg PUBLIC "-//W3C//DTD SVG 1.1//EN" "http://www.w3.org/Graphics/SVG/1.1/DTD/svg11.dtd"><svg t="1533720610882" class="icon" style="" viewBox="0 0 1024 1024" version="1.1" xmlns="http://www.w3.org/2000/svg" p-id="5182" xmlns:xlink="http://www.w3.org/1999/xlink" width="64" height="64"><defs><style type="text/css"></style></defs><path d="M779.95324 65.311495 243.998665 65.311495c-98.623181 0-178.709171 79.953983-178.709171 178.709171l0 535.956621c0 98.623181 80.08599 178.709171 178.709171 178.709171l535.954575 0c98.755188 0 178.75522-80.08599 178.75522-178.709171L958.70846 244.020666C958.70846 145.265478 878.708428 65.311495 779.95324 65.311495zM378.042567 869.310895l-89.419566 0c-73.979922 0-133.912919-59.977-133.912919-133.956921L154.710083 467.353151l223.332485 0L378.042567 869.310895zM869.286848 735.353974c0 73.979922-59.932997 133.956921-133.954875 133.956921L467.331149 869.310895 467.331149 467.353151l401.955698 0L869.286848 735.353974zM869.286848 377.933585 154.710083 377.933585l0-89.289606c0-73.979922 59.932997-134.042879 133.912919-134.042879l446.708971 0c74.021877 0 133.954875 60.062957 133.954875 134.042879L869.286848 377.933585z" p-id="5183" fill="#8a8a8a"></path></svg>