<?xml version="1.0" standalone="no"?><!DOCTYPE svg PUBLIC "-//W3C//DTD SVG 1.1//EN" "http://www.w3.org/Graphics/SVG/1.1/DTD/svg11.dtd"><svg t="1533353196483" class="icon" style="" viewBox="0 0 1024 1024" version="1.1" xmlns="http://www.w3.org/2000/svg" p-id="653" xmlns:xlink="http://www.w3.org/1999/xlink" width="32" height="32"><defs><style type="text/css"></style></defs><path d="M0.021489 0l0 1023.957021 1023.957021 0L1023.978511 0 0.021489 0zM989.846132 989.824643 34.153868 989.824643 34.153868 34.132378l955.693288 0L989.847156 989.824643z" p-id="654"></path><path d="M512 511.978511 512 191.991686 192.013175 191.991686l0 319.986825L512 511.978511zM226.145553 226.124064l251.723092 0 0 251.723092-251.723092 0L226.145553 226.124064z" p-id="655"></path><path d="M607.996354 337.052502 750.923578 337.052502 750.923578 750.902088 337.073992 750.902088 337.073992 607.974865c0-9.425673-7.641027-17.065677-17.065677-17.065677-9.425673 0-17.065677 7.641027-17.065677 17.065677l0 159.992901 0 17.065677 17.065677 0 447.980941 0 17.065677 0 0-17.065677L785.054933 319.986825l0-17.065677-17.065677 0L607.996354 302.921147c-9.425673 0-17.065677 7.641027-17.065677 17.065677C590.929654 329.411475 598.570681 337.052502 607.996354 337.052502z" p-id="656"></path></svg>